<svg version="1.1" id="Layer_1" xmlns="http://www.w3.org/2000/svg" xmlns:xlink="http://www.w3.org/1999/xlink" x="0px" y="0px"
	 width="100%" viewBox="0 0 512 225" enable-background="new 0 0 512 225" xml:space="preserve">
<path fill="#F8FAFA" opacity="1.000000" stroke="none" 
	d="
M490.000000,226.000000 
	C328.221375,226.000000 166.942749,225.977783 5.664258,226.122299 
	C1.431032,226.126099 0.891127,225.045639 0.898579,221.167175 
	C1.036879,149.191864 1.034213,77.216148 0.899731,5.240815 
	C0.892952,1.612880 1.672964,0.902661 5.256552,0.904992 
	C173.032883,1.014129 340.809326,1.017359 508.585632,0.893582 
	C512.524597,0.890676 513.091309,1.990452 513.085632,5.582811 
	C512.971191,77.724823 512.968506,149.867111 513.097351,222.009079 
	C513.103516,225.448517 512.424072,226.295624 508.987793,226.099014 
	C502.843414,225.747452 496.664520,226.000000 490.000000,226.000000 
z"/>
<path fill="#2BB453" opacity="1.000000" stroke="none" 
	d="
M378.803894,119.590866 
	C377.197205,124.239670 378.735748,125.693047 383.213287,125.190056 
	C386.482727,124.822784 389.829956,125.147957 393.601501,125.275253 
	C394.332703,125.705688 394.451721,126.074707 394.191895,126.696167 
	C392.900421,129.156418 390.784119,130.077698 388.641083,129.910522 
	C380.983246,129.313171 373.392181,130.679337 365.519470,128.804535 
	C361.786316,127.915527 356.006744,129.588226 351.197266,130.367096 
	C349.793579,130.594406 349.658722,132.427612 349.155945,133.610794 
	C347.514557,137.473419 345.705994,141.204895 342.366669,143.937195 
	C338.271729,147.287781 332.328522,147.895401 328.898438,145.330795 
	C325.549255,142.826691 325.098511,137.947510 327.725677,132.554703 
	C328.012238,131.966522 328.337067,131.396973 328.652496,130.803085 
	C322.653503,128.607529 321.904633,127.176208 323.718658,121.326401 
	C324.408691,119.101295 325.225159,116.915619 325.970886,114.707542 
	C328.634338,106.821098 329.020752,106.667732 337.169830,107.430527 
	C339.664124,107.664009 339.879486,108.570572 339.169708,110.593536 
	C337.902374,114.205467 336.658722,117.832657 335.623627,121.514885 
	C335.313477,122.618225 333.520508,124.514969 336.252930,124.993690 
	C337.933472,125.288132 340.071381,125.777855 340.840302,123.288513 
	C342.019409,119.471443 343.114227,115.628258 344.302246,111.814041 
	C345.433014,108.183723 352.944000,105.617554 356.114502,107.707390 
	C357.316132,108.499466 356.669006,109.409859 356.407715,110.307518 
	C355.291199,114.143410 354.224091,117.995262 353.016785,121.802551 
	C352.315491,124.014145 352.470428,125.398422 355.283600,125.119034 
	C355.943176,125.053528 356.615173,125.111198 357.281433,125.115143 
	C365.925415,125.166328 368.075928,123.235413 368.991547,114.704216 
	C369.107544,113.623642 369.180176,112.768608 367.879089,112.383652 
	C366.839600,112.076096 364.714508,112.978935 365.359436,110.560280 
	C365.731232,109.166054 366.165588,107.565689 367.899048,107.113144 
	C373.516296,105.646683 376.984802,101.768677 379.401337,96.785812 
	C380.810547,93.880051 383.483032,94.378723 385.457520,95.026833 
	C387.900177,95.828613 385.781586,97.811188 385.549988,99.230438 
	C385.338654,100.525513 384.770630,101.771736 384.287231,103.011200 
	C383.156799,105.909645 383.274506,107.904373 387.228455,107.517410 
	C388.160522,107.426201 389.512665,107.175476 389.861847,108.312057 
	C390.262207,109.615295 389.053162,110.392830 388.076996,110.978470 
	C387.238495,111.481529 386.203857,112.133240 385.336487,112.031631 
	C381.256042,111.553589 380.232635,114.171753 379.368225,117.651733 
	C379.070465,118.423386 378.987732,118.851089 378.803894,119.590866 
z"/>
<path fill="#2DB555" opacity="1.000000" stroke="none" 
	d="
M304.475769,107.635941 
	C307.628815,106.035202 310.559326,104.747200 312.550964,102.138794 
	C315.916473,97.731049 314.425201,93.310234 308.934662,92.735886 
	C303.169556,92.132812 297.310455,92.386093 291.491882,92.347755 
	C284.220032,92.299835 276.947632,92.336235 269.493866,92.336235 
	C271.231384,86.116272 274.510712,83.716721 280.778198,84.070564 
	C290.899384,84.641968 301.076813,84.173897 311.229553,84.258804 
	C313.874207,84.280922 316.557159,84.513329 319.148224,85.025246 
	C322.912415,85.768951 326.114655,87.536987 327.150482,91.617027 
	C328.231567,95.875397 326.916199,99.492371 323.749207,102.470863 
	C323.264954,102.926270 322.803925,103.459595 322.228821,103.756813 
	C316.886719,106.517433 312.958344,109.346710 315.561005,116.836128 
	C317.013092,121.014671 313.112488,124.493492 309.121094,126.444901 
	C304.584686,128.662781 299.717102,129.780716 294.677460,129.956970 
	C290.687195,130.096527 286.689667,130.043701 282.695312,130.048187 
	C273.651520,130.058334 273.699707,130.068527 276.686035,121.718925 
	C279.318848,114.357689 281.800201,106.942390 284.405792,99.571243 
	C285.386780,96.796066 294.444214,94.567993 296.403534,96.603088 
	C297.452698,97.692818 296.444916,98.808807 296.099701,99.826027 
	C293.640656,107.072159 291.231415,114.339058 288.557953,121.506706 
	C287.444672,124.491463 288.097229,125.579865 291.189575,125.035690 
	C293.966522,124.547020 296.826050,124.213051 299.455414,123.270493 
	C303.936096,121.664299 305.161377,118.537323 303.143127,114.196800 
	C301.982697,111.701134 301.128662,109.532021 304.475769,107.635941 
z"/>
<path fill="#2AB453" opacity="1.000000" stroke="none" 
	d="
M230.022369,105.287468 
	C230.491425,101.945099 232.934387,101.053276 235.715149,100.164497 
	C236.499405,100.104149 236.933502,100.040009 237.697662,99.960808 
	C244.280731,99.303490 244.433884,99.335800 243.304260,104.689987 
	C242.750320,107.315559 244.011520,107.494415 245.903931,107.488312 
	C249.396759,107.477043 252.897064,107.630463 256.380280,107.448158 
	C259.352295,107.292595 259.794983,108.435394 258.901123,110.981949 
	C257.635559,114.587540 256.627625,118.283165 255.379898,121.895531 
	C254.572403,124.233398 255.029892,125.303650 257.711334,125.145653 
	C260.197510,124.999153 262.699829,125.090256 265.193909,125.136131 
	C265.962769,125.150276 266.989838,124.813454 267.389587,125.756180 
	C267.873474,126.897415 266.940979,127.598106 266.193878,128.214218 
	C264.882904,129.295303 263.364319,129.983368 261.637848,129.996811 
	C257.147461,130.031815 252.655685,130.084412 248.166428,130.010452 
	C244.142532,129.944168 242.923264,127.586647 243.801743,123.992165 
	C244.431580,121.415009 245.457291,118.936005 246.123505,116.365799 
	C246.488754,114.956696 247.841049,112.932388 245.036682,112.483414 
	C243.128845,112.177986 240.943558,111.759750 240.016876,114.376572 
	C239.184402,116.727425 238.327332,119.069641 237.470993,121.411964 
	C236.887207,123.008827 236.180573,124.561333 234.313644,124.953156 
	C233.027222,125.223152 231.502518,125.599594 230.475098,124.683136 
	C229.428864,123.749886 230.534500,122.558510 230.846893,121.524734 
	C233.707382,112.058838 233.717743,112.126335 223.759369,112.285614 
	C220.978867,112.330086 219.400635,112.401901 220.423843,116.096550 
	C221.787689,121.021179 219.537430,125.917244 214.961090,128.314896 
	C207.275482,132.341583 199.657669,132.149399 192.248779,126.557968 
	C191.402298,125.906021 191.094833,125.347282 190.929947,124.342850 
	C188.557037,116.070030 191.453659,111.210060 200.718231,108.183121 
	C201.859467,108.040871 202.652496,108.010521 203.739624,107.934967 
	C212.219589,107.732277 220.403671,107.558044 229.035309,107.242775 
	C229.690033,106.599060 229.925751,106.105965 230.022369,105.287468 
z"/>
<path fill="#2CB554" opacity="1.000000" stroke="none" 
	d="
M114.502014,125.026459 
	C113.813469,128.802536 110.780167,129.972580 107.245476,130.002533 
	C97.426231,130.085815 87.605583,130.013672 77.785538,129.985062 
	C75.417419,129.978165 73.183022,129.317474 71.024910,128.398666 
	C64.917328,125.798447 62.986622,120.377327 66.196281,114.518433 
	C68.715393,109.920059 72.859543,107.124901 77.564178,105.215691 
	C80.201469,104.145439 81.478401,103.297279 80.400124,99.881004 
	C78.505569,93.878525 80.852997,89.519615 86.537079,86.832428 
	C94.263084,83.179901 102.498344,83.924583 110.589767,84.593613 
	C114.420105,84.910324 117.233765,89.408127 116.641006,93.154495 
	C115.958900,97.465607 113.293045,99.908150 108.886986,100.275467 
	C104.228874,100.663795 100.634415,98.126839 99.513206,93.811333 
	C98.987831,91.789124 100.361427,88.097435 95.880150,89.297531 
	C92.200272,90.283005 91.514893,93.016502 92.095406,96.324638 
	C92.266037,97.296982 92.566582,98.278214 92.989227,99.169205 
	C94.948990,103.300583 93.234718,105.704407 89.446365,107.440475 
	C87.193237,108.473007 84.933296,109.670906 83.016685,111.216423 
	C79.934601,113.701759 78.599274,117.171570 79.707626,121.032555 
	C80.739220,124.626129 84.209557,124.816422 87.122513,124.896385 
	C96.103455,125.142914 105.093010,125.075386 114.502014,125.026459 
z"/>
<path fill="#2DB555" opacity="1.000000" stroke="none" 
	d="
M190.574768,124.377197 
	C191.786301,124.284599 192.006714,124.970222 192.017273,126.021523 
	C185.254059,132.598099 177.014069,129.729935 169.315338,129.599335 
	C166.769623,129.556152 166.456238,126.635384 166.969177,124.398407 
	C167.596710,121.661781 168.559692,119.003807 169.295807,116.289619 
	C169.642593,115.010956 171.138885,113.209839 168.892487,112.593437 
	C166.977325,112.067932 164.484543,111.486992 163.346085,114.258110 
	C162.591339,116.095200 161.746765,117.925262 161.268829,119.839943 
	C160.269455,123.843620 158.047501,125.875237 153.409973,125.077736 
	C153.721573,122.817444 154.381516,120.596931 155.081268,118.389053 
	C156.023102,115.417328 157.814270,112.899391 153.866608,109.980263 
	C151.051559,107.898651 152.369812,104.133781 155.202713,101.812538 
	C157.647842,99.809029 160.633896,99.631363 163.675201,99.421318 
	C167.391052,99.164703 168.639877,100.301918 166.923782,103.833664 
	C165.499146,106.765572 166.654480,107.639122 169.613205,107.510086 
	C173.100128,107.358017 176.600021,107.531731 180.092163,107.460526 
	C182.388474,107.413704 183.050583,108.211754 182.268875,110.464066 
	C180.961533,114.230949 179.939743,118.097160 178.624496,121.861015 
	C177.831070,124.131592 178.019501,125.323959 180.817123,125.127281 
	C183.954819,124.906685 187.104874,124.861908 190.574768,124.377197 
z"/>
<path fill="#2CB554" opacity="1.000000" stroke="none" 
	d="
M152.979156,124.970322 
	C152.686752,128.874512 149.730377,129.762466 146.703079,129.949341 
	C142.237366,130.225006 137.739883,130.123627 133.260742,130.003372 
	C129.288315,129.896713 128.048935,127.549927 128.973282,123.939453 
	C129.630554,121.372192 130.581802,118.880890 131.262482,116.318657 
	C131.599152,115.051399 133.094055,113.216255 130.886520,112.577583 
	C128.950150,112.017365 126.452332,111.560776 125.302025,114.259483 
	C124.522614,116.088043 123.723221,117.946548 123.278976,119.871567 
	C122.329567,123.985588 120.003006,125.847717 115.341782,124.993118 
	C114.924805,124.923050 114.969810,124.969872 114.991135,124.993240 
	C115.707016,122.807610 116.391380,120.595345 117.098663,118.390434 
	C118.018127,115.524132 119.792343,113.073456 116.076401,110.181847 
	C113.397118,108.096909 114.205284,104.379532 117.072525,101.947281 
	C119.338882,100.024750 122.092842,99.565704 124.989990,99.462257 
	C128.349518,99.342316 131.304749,99.274811 128.862244,104.055908 
	C127.410202,106.898224 129.088943,107.515129 131.553848,107.484764 
	C135.042496,107.441772 138.533844,107.547905 142.020752,107.459732 
	C144.285538,107.402466 144.981216,108.096237 144.187592,110.379089 
	C142.880005,114.140297 141.962463,118.041275 140.571304,121.767906 
	C139.508789,124.614151 140.457428,125.279831 143.140350,125.139839 
	C146.123581,124.984177 149.118988,125.062325 152.576508,125.035507 
	C153.043915,125.032326 153.000961,124.990761 152.979156,124.970322 
z"/>
<path fill="#30B657" opacity="1.000000" stroke="none" 
	d="
M394.354248,126.729309 
	C393.979156,126.562363 393.992065,126.225517 394.032776,125.637360 
	C394.783020,124.680458 394.408539,123.879318 394.318237,123.065620 
	C393.462250,115.351761 396.451599,110.586563 403.929596,108.401451 
	C409.290344,106.835022 414.856171,106.950752 420.267151,108.105034 
	C424.045654,108.911079 427.325531,110.898010 426.731140,115.575333 
	C426.140717,120.221252 422.666748,120.665131 418.873505,120.358955 
	C418.045563,120.292122 417.200256,120.276222 416.375641,120.360527 
	C413.088074,120.696632 412.685730,119.447479 414.057922,116.692131 
	C414.672729,115.457634 416.510925,113.479652 413.966675,112.589691 
	C411.769226,111.821060 409.202118,111.876839 408.575867,115.167946 
	C408.545135,115.329384 408.462280,115.480705 408.405701,115.637459 
	C405.327545,124.166100 405.970428,125.098923 414.934204,125.100929 
	C421.697021,125.102432 428.459839,125.101227 435.946075,125.101227 
	C434.266968,128.758011 431.792664,129.935211 428.918427,129.970856 
	C420.922211,130.070053 412.923065,129.905243 404.925018,129.893906 
	C401.150787,129.888565 398.355133,126.997734 394.354248,126.729309 
z"/>
<path fill="#2DB555" opacity="1.000000" stroke="none" 
	d="
M203.800049,107.791489 
	C203.426392,108.962265 202.571075,109.173538 201.291046,108.430634 
	C201.909424,108.035873 202.737015,107.856178 203.800049,107.791489 
z"/>
<path fill="#2DB555" opacity="1.000000" stroke="none" 
	d="
M237.838348,99.820572 
	C237.668259,100.610245 237.201065,101.013794 236.233582,100.380890 
	C236.595444,100.025795 237.123337,99.868164 237.838348,99.820572 
z"/>
<path fill="#2DB555" opacity="1.000000" stroke="none" 
	d="
M229.842224,105.216995 
	C230.979141,105.689316 230.988419,106.327660 229.727112,107.014450 
	C229.535492,106.540512 229.588150,105.979279 229.842224,105.216995 
z"/>
<path fill="#30B657" opacity="1.000000" stroke="none" 
	d="
M378.886780,119.707214 
	C377.983337,119.313423 377.941437,118.731285 378.940125,118.077148 
	C379.113861,118.498657 379.086426,119.003944 378.886780,119.707214 
z"/>
<path fill="#D1EFDA" opacity="1.000000" stroke="none" 
	d="
M333.486633,135.660980 
	C334.509186,133.583908 335.179657,131.662704 337.756805,131.283218 
	C338.212463,134.420502 336.388824,136.916870 335.697021,139.655304 
	C335.541107,140.272354 334.947327,140.933990 334.276855,140.459244 
	C332.664490,139.317627 332.948547,137.644058 333.486633,135.660980 
z"/>
<path fill="#E6F4EB" opacity="1.000000" stroke="none" 
	d="
M209.834106,116.851288 
	C209.028839,119.273804 208.257416,121.298981 207.705902,123.382355 
	C207.135834,125.535767 206.028397,126.486374 203.755676,125.847946 
	C201.732971,125.279739 200.380554,124.159760 200.916626,121.936157 
	C201.576477,119.199165 202.275803,116.424957 203.396393,113.858192 
	C204.653931,110.977791 207.566788,111.969231 209.563065,112.424034 
	C212.357697,113.060707 209.732468,115.092323 209.834106,116.851288 
z"/>
</svg>